<?xml version="1.0" encoding="utf-8"?>
<!-- Generator: Adobe Illustrator 24.0.2, SVG Export Plug-In . SVG Version: 6.00 Build 0)  -->
<svg version="1.1" id="Capa_1" xmlns="http://www.w3.org/2000/svg" xmlns:xlink="http://www.w3.org/1999/xlink" x="0px" y="0px"
	 viewBox="0 0 390 250" style="enable-background:new 0 0 390 250;" xml:space="preserve">
<style type="text/css">
	.st0{fill:#E0E9F6;}
	.st1{fill:#9ED089;}
	.st2{fill:#FFCD78;}
	.st3{fill:#F89A54;}
	.st4{fill:#EF444E;}
</style>
<g>
	<path class="st0" d="M195,23.7c-77.3,0-139.8,62.5-139.8,139.8h77.7c0-34.4,27.8-62.1,62.1-62.1s62.1,27.7,62.1,62.1h77.7
		C334.8,86.3,272.3,23.7,195,23.7z"/>
	<path class="st1" d="M288.2,163.6h-15.5c0-42.9-34.8-77.7-77.7-77.7s-77.7,34.8-77.7,77.7h-15.5c0-51.5,41.6-93.3,93.2-93.3
		C246.5,70.3,288.2,112.1,288.2,163.6z"/>
	<path class="st2" d="M303.8,163.6h-15.6c0-51.5-41.6-93.3-93.2-93.3c-51.5,0-93.2,41.8-93.2,93.3H86.2
		c0-60.1,48.7-108.7,108.8-108.7C255.1,54.9,303.8,103.5,303.8,163.6z"/>
	<path class="st3" d="M319.3,163.6h-15.5c0-60.1-48.7-108.7-108.8-108.7S86.2,103.5,86.2,163.6H70.7c0-68.7,55.6-124.3,124.3-124.3
		C263.7,39.3,319.3,94.9,319.3,163.6z"/>
	<path class="st4" d="M334.8,163.6h-15.6c0-68.7-55.6-124.3-124.3-124.3c-68.7,0-124.3,55.6-124.3,124.3H55.2
		c0-77.3,62.5-139.8,139.8-139.8S334.8,86.3,334.8,163.6z"/>
	<path class="st0" d="M357.6,165.8c19.9-19-13.4-37.8-27.7-20.1c-12.5-18.9-47.8-14.4-53.2,8.6c-9-15.5-44.2-11.5-31.5,20.7
		c-29,8.8-3.5,59.5,28,36.5c8.9,22.7,67.7,17.7,74-5.1C373.9,209.9,388.6,175.1,357.6,165.8z"/>
	<path class="st0" d="M32.4,165.8c-19.9-19,13.4-37.8,27.7-20.1c12.5-18.9,47.8-14.4,53.2,8.6c9-15.5,44.2-11.5,31.5,20.7
		c29,8.8,3.5,59.5-28,36.5c-8.9,22.7-67.7,17.7-74-5.1C16.1,209.9,1.4,175.1,32.4,165.8z"/>
</g>
</svg>
